<?xml version="1.0" encoding="UTF-8"?>
<svg width="1600" height="900" viewBox="0 0 1600 900" fill="none" xmlns="http://www.w3.org/2000/svg" role="img" aria-labelledby="title desc">
  <title id="title">Context Engineering cover</title>
  <desc id="desc">Layered context packets flowing through selection, compression, cache, isolation, and evaluation stages.</desc>
  <defs>
    <linearGradient id="bg" x1="120" y1="60" x2="1500" y2="840" gradientUnits="userSpaceOnUse">
      <stop stop-color="#0b1220"/>
      <stop offset=".55" stop-color="#17334b"/>
      <stop offset="1" stop-color="#0a1725"/>
    </linearGradient>
    <linearGradient id="card" x1="0" y1="0" x2="1" y2="1">
      <stop stop-color="#f8fafc" stop-opacity=".20"/>
      <stop offset="1" stop-color="#67e8f9" stop-opacity=".08"/>
    </linearGradient>
  </defs>
  <rect width="1600" height="900" rx="48" fill="url(#bg)"/>
  <g opacity=".12" stroke="#bfdbfe" stroke-width="2">
    <path d="M174 156H1426M174 282H1426M174 408H1426M174 534H1426M174 660H1426"/>
    <path d="M246 108V790M498 108V790M750 108V790M1002 108V790M1254 108V790"/>
  </g>
  <g transform="translate(170 170)">
    <rect width="292" height="480" rx="34" fill="url(#card)" stroke="#93c5fd" stroke-opacity=".28"/>
    <rect x="42" y="48" width="190" height="18" rx="9" fill="#e0f2fe" fill-opacity=".62"/>
    <rect x="42" y="104" width="218" height="28" rx="14" fill="#38bdf8" fill-opacity=".52"/>
    <rect x="42" y="168" width="170" height="18" rx="9" fill="#f8fafc" fill-opacity=".42"/>
    <rect x="42" y="218" width="210" height="18" rx="9" fill="#f8fafc" fill-opacity=".32"/>
    <rect x="42" y="268" width="136" height="18" rx="9" fill="#f8fafc" fill-opacity=".30"/>
    <rect x="42" y="360" width="208" height="70" rx="22" fill="#020617" fill-opacity=".28" stroke="#67e8f9" stroke-opacity=".28"/>
  </g>
  <g transform="translate(514 118)">
    <rect width="292" height="584" rx="34" fill="url(#card)" stroke="#a7f3d0" stroke-opacity=".30"/>
    <path d="M64 104H228M64 170H182M64 236H226M64 302H166M64 368H214" stroke="#d1fae5" stroke-opacity=".56" stroke-width="18" stroke-linecap="round"/>
    <path d="M82 472C132 420 176 420 226 472" stroke="#67e8f9" stroke-width="9" stroke-linecap="round"/>
    <circle cx="82" cy="472" r="16" fill="#67e8f9"/>
    <circle cx="154" cy="438" r="16" fill="#a7f3d0"/>
    <circle cx="226" cy="472" r="16" fill="#f8fafc"/>
  </g>
  <g transform="translate(858 170)">
    <rect width="292" height="480" rx="34" fill="url(#card)" stroke="#fcd34d" stroke-opacity=".28"/>
    <rect x="46" y="64" width="200" height="80" rx="24" fill="#fcd34d" fill-opacity=".18" stroke="#fde68a" stroke-opacity=".36"/>
    <rect x="46" y="188" width="200" height="80" rx="24" fill="#38bdf8" fill-opacity=".16" stroke="#67e8f9" stroke-opacity=".34"/>
    <rect x="46" y="312" width="200" height="80" rx="24" fill="#a7f3d0" fill-opacity=".14" stroke="#a7f3d0" stroke-opacity=".34"/>
    <path d="M146 144V188M146 268V312" stroke="#f8fafc" stroke-opacity=".52" stroke-width="7" stroke-linecap="round"/>
  </g>
  <g transform="translate(1202 170)">
    <rect width="228" height="480" rx="34" fill="url(#card)" stroke="#e0f2fe" stroke-opacity=".26"/>
    <rect x="44" y="58" width="140" height="140" rx="28" fill="#020617" fill-opacity=".30" stroke="#67e8f9" stroke-opacity=".32"/>
    <rect x="72" y="88" width="84" height="14" rx="7" fill="#67e8f9" fill-opacity=".58"/>
    <rect x="72" y="126" width="84" height="14" rx="7" fill="#f8fafc" fill-opacity=".40"/>
    <rect x="72" y="164" width="60" height="14" rx="7" fill="#a7f3d0" fill-opacity=".52"/>
    <path d="M66 308H162M66 358H136M66 408H174" stroke="#f8fafc" stroke-opacity=".45" stroke-width="17" stroke-linecap="round"/>
  </g>
  <g stroke="#67e8f9" stroke-opacity=".50" stroke-width="7" stroke-linecap="round">
    <path d="M462 410H514"/>
    <path d="M806 410H858"/>
    <path d="M1150 410H1202"/>
  </g>
</svg>
